PathFileType	4	(X/Y/Z)	s10c0301.trc
DataRate	CameraRate	NumFrames	NumMarkers	Units	OrigDataRate	OrigDataStartFrame	OrigNumFrames
200	200	4	50	mm	200	1250	2000
Frame#	Time	racr			lacr			c7			jug			rlel			rdr			llel			ldr			s2			lic			ric			lasi			rasi			rpsi			lpsi			rgt			lgt			rth1			rth2			rth3			rth4			rlfc			rmfc			rsh1			rsh2			rsh3			rsh4			rlmal			rmmal			rcal			rtoe			rmt5			lth1			lth2			lth4			lth3			llfc			lmfc			llmal			lmmal			lcal			lmt5			lsh1			lsh2			lsh3			lsh4			ltoe			SBIKE			LBIKE			RBIKE			
		X1	Y1	Z1	X2	Y2	Z2	X3	Y3	Z3	X4	Y4	Z4	X5	Y5	Z5	X6	Y6	Z6	X7	Y7	Z7	X8	Y8	Z8	X9	Y9	Z9	X10	Y10	Z10	X11	Y11	Z11	X12	Y12	Z12	X13	Y13	Z13	X14	Y14	Z14	X15	Y15	Z15	X16	Y16	Z16	X17	Y17	Z17	X18	Y18	Z18	X19	Y19	Z19	X20	Y20	Z20	X21	Y21	Z21	X22	Y22	Z22	X23	Y23	Z23	X24	Y24	Z24	X25	Y25	Z25	X26	Y26	Z26	X27	Y27	Z27	X28	Y28	Z28	X29	Y29	Z29	X30	Y30	Z30	X31	Y31	Z31	X32	Y32	Z32	X33	Y33	Z33	X34	Y34	Z34	X35	Y35	Z35	X36	Y36	Z36	X37	Y37	Z37	X38	Y38	Z38	X39	Y39	Z39	X40	Y40	Z40	X41	Y41	Z41	X42	Y42	Z42	X43	Y43	Z43	X44	Y44	Z44	X45	Y45	Z45	X46	Y46	Z46	X47	Y47	Z47	X48	Y48	Z48	X49	Y49	Z49	X50	Y50	Z50	
1250	6.2500	672.230086	1314.348765	-64.872389	704.136502	1320.131246	-363.010907	672.210608	1331.737424	-205.554082	684.724726	1191.854362	-221.186463	573.470371	1064.532549	33.201279	643.327485	873.486496	-53.217483	601.186979	1081.391164	-502.721356	648.994117	885.068557	-415.089050	151.515313	1124.419667	-126.605058	258.574261	1143.302487	-326.972143	378.088839	1101.768484	-71.996448	275.381583	1055.481465	-312.251030	354.397378	1014.797813	-84.028315	224.139726	1162.794084	-87.080587	189.285673	1188.151816	-193.603742	267.597304	985.420521	14.909259	147.142233	1026.265355	-347.634573	289.645364	847.731557	9.067937	311.362222	770.720364	-28.341883	292.687556	688.719153	-44.388378	342.684084	778.598274	-47.388537	309.270109	588.632585	-83.252428	247.721249	592.120514	-182.854447	248.682116	494.708238	-30.708073	233.959657	408.275380	-45.001904	183.370234	338.523786	-36.720202	252.794310	401.890989	-78.134881	135.403553	246.136486	-42.248289	144.873437	255.340662	-128.323089	73.163225	236.996244	-85.980227	305.383927	168.558543	-110.399270	225.775744	158.543839	-40.467347	247.496715	939.736705	-385.503464	332.215901	919.144851	-388.213568	350.427992	948.934351	-376.148104	395.287147	857.696862	-399.594603	478.390337	784.978985	-396.538250	476.503015	752.755270	-276.582594	136.154148	616.616367	-387.409726	152.111943	601.498417	-307.809897	83.664809	639.187639	-338.688749	124.346800	466.582531	-399.219787	364.318573	739.044009	-425.141366	304.037315	677.408944	-410.266271	217.629245	654.868175	-403.147709	321.609000	652.538066	-385.812261	187.880466	407.682233	-342.976484	-217.796120	833.610228	-213.827628	-104.052780	80.449511	-418.185797	-103.990539	80.342319	-18.276306	
1251	6.2550	671.092530	1314.827913	-66.460202	703.595496	1320.283893	-363.948545	671.542124	1331.676926	-206.814046	685.596322	1191.788601	-221.653665	573.509063	1064.769843	32.320289	643.606480	873.134462	-52.275018	601.413463	1080.861663	-503.146990	648.742781	885.252145	-415.350208	153.401626	1122.113051	-125.002216	257.255519	1142.210390	-326.711284	379.853846	1100.295833	-73.510181	274.268550	1054.915640	-313.177582	355.988898	1012.980564	-86.057928	226.356625	1160.425627	-86.697869	189.163433	1186.270646	-192.309674	272.535778	985.202191	15.166143	144.515212	1024.234108	-346.118443	289.260706	847.229179	8.749725	308.716536	769.292393	-27.980768	287.896746	687.517413	-42.918980	339.789221	776.288163	-47.824312	301.201180	586.814846	-81.534579	238.647607	591.318343	-180.616846	241.485668	492.381640	-29.780362	226.529447	406.057235	-44.724610	176.234837	336.269892	-36.337595	244.937894	400.021653	-78.168618	127.726404	244.253552	-41.650025	136.975685	253.334958	-127.494828	65.692547	236.634266	-85.659020	296.207659	163.073207	-110.379107	216.441193	154.698428	-40.347156	247.581073	941.152463	-384.849736	333.042206	923.590619	-388.582990	350.251466	953.560828	-375.625772	398.114466	864.328456	-400.451265	483.568998	793.301856	-397.038488	482.425207	759.823581	-276.738002	142.204592	620.982163	-385.910461	159.145087	606.633137	-306.927875	89.032685	642.458642	-338.387356	134.338397	471.114664	-399.071012	369.454499	747.096938	-424.738674	309.638835	685.080380	-410.329820	223.588821	661.960726	-402.442778	327.767528	659.598067	-386.688624	199.170560	413.638583	-342.989892	-217.795167	833.612702	-213.817084	-104.074200	80.442913	-418.195166	-103.981391	80.351169	-18.263880	
1252	6.2600	669.996282	1315.328660	-68.090437	703.064652	1320.296194	-365.114067	670.969059	1331.560149	-208.115320	686.218805	1191.637908	-222.071554	573.581014	1065.018902	31.255556	644.107257	872.540323	-50.807077	601.390021	1080.261001	-503.650372	648.495958	885.356484	-415.639285	155.208522	1120.258924	-123.606783	255.977793	1141.549304	-326.855585	381.605778	1098.985080	-75.052656	273.260427	1054.488186	-314.441656	357.332161	1011.591060	-88.223889	227.649672	1158.984436	-85.949420	189.063154	1184.630480	-191.122716	276.668499	986.570940	15.038239	142.080719	1022.585532	-344.668117	288.994762	847.106224	8.520536	306.429758	768.366335	-27.732054	283.512188	686.757420	-41.099144	336.919897	774.555988	-47.863083	293.420657	585.589262	-79.221456	230.164201	590.889369	-178.190704	234.328941	490.895488	-28.447074	219.319530	404.727692	-44.011495	169.246152	334.779899	-35.730105	237.316214	399.010741	-77.725831	120.092263	243.027508	-41.091875	129.161591	251.970390	-126.614319	58.133008	237.023160	-85.272506	286.795531	158.016911	-110.346392	206.897968	151.586430	-40.207023	247.304395	942.654635	-384.379517	333.362369	927.861152	-389.113141	349.695339	958.155220	-375.715243	400.141463	870.406457	-401.010381	488.283858	801.352448	-397.897801	488.211539	767.248642	-277.132747	148.901379	625.375440	-385.143723	165.847191	610.986807	-306.279300	94.817871	644.898987	-337.836787	144.453601	474.964780	-399.035012	374.773387	754.897671	-424.076721	315.493989	692.206940	-410.418344	229.658186	668.407842	-401.375242	334.005265	666.220341	-387.658607	210.564721	419.010657	-343.118143	-217.812955	833.612063	-213.806254	-104.047150	80.464204	-418.201230	-103.986955	80.359498	-18.262150	
1253	6.2650	669.030469	1315.812787	-69.686650	702.429465	1320.156523	-366.556863	670.394927	1331.270164	-209.453437	687.388597	1191.376670	-222.353049	573.725765	1065.375257	30.268845	644.299367	872.589430	-51.035072	601.076522	1079.584788	-504.349496	648.231790	885.415623	-415.959784	156.818098	1119.322869	-123.055124	254.988185	1140.929078	-326.930959	383.344979	1097.802959	-76.724928	272.273490	1054.247365	-315.909394	358.496007	1010.557549	-90.398003	227.831032	1158.881486	-83.810807	188.934691	1183.433817	-190.287963	279.327245	987.211930	13.961215	139.789287	1021.425003	-343.234964	288.893068	847.382856	8.467751	304.188309	767.796608	-26.922920	279.498338	686.537946	-39.023200	334.628779	773.337689	-47.855413	285.993567	584.966991	-76.455895	222.432460	590.862178	-175.668738	227.254189	490.411932	-26.694222	212.234889	404.396884	-42.754475	162.354486	334.150280	-34.697107	229.928823	398.929772	-76.820537	112.444908	242.469160	-40.463272	121.368477	251.054519	-125.619850	50.623252	238.172958	-84.897793	277.236281	153.596130	-110.233248	197.307724	148.966877	-40.007957	246.746894	944.328644	-384.101318	333.197272	931.861644	-389.690018	348.808526	962.392422	-375.808424	401.306097	876.349886	-402.662183	492.581882	809.006579	-398.988558	493.805483	774.818823	-277.754111	155.575220	628.771094	-384.119241	172.922001	614.366483	-305.848252	100.971986	646.573821	-337.468349	154.795292	478.115909	-398.973329	380.179260	762.212357	-423.402315	321.363601	698.933697	-410.554104	235.860341	674.239031	-400.673429	340.458334	672.496720	-388.731382	222.133651	423.521583	-342.998251	-217.825150	833.613978	-213.798954	-104.030624	80.494846	-418.212794	-103.985794	80.331417	-18.256214	
